<?xml version="1.0" encoding="UTF-8" standalone="no"?>
<!-- Created with Inkscape (http://www.inkscape.org/) -->

<svg
   width="297mm"
   height="210mm"
   viewBox="0 0 1122.5197 793.70081"
   version="1.1"
   id="svg1"
   xml:space="preserve"
   inkscape:version="1.4 (86a8ad7, 2024-10-11)"
   sodipodi:docname="Aurionth-mapa_BLIND.svg"
   inkscape:export-filename="Aurionth-mapa_BLIND.png"
   inkscape:export-xdpi="96"
   inkscape:export-ydpi="96"
   xmlns:inkscape="http://www.inkscape.org/namespaces/inkscape"
   xmlns:sodipodi="http://sodipodi.sourceforge.net/DTD/sodipodi-0.dtd"
   xmlns="http://www.w3.org/2000/svg"
   xmlns:svg="http://www.w3.org/2000/svg"><sodipodi:namedview
     id="namedview1"
     pagecolor="#ffffff"
     bordercolor="#000000"
     borderopacity="0.25"
     inkscape:showpageshadow="2"
     inkscape:pageopacity="0.0"
     inkscape:pagecheckerboard="0"
     inkscape:deskcolor="#d1d1d1"
     inkscape:document-units="mm"
     inkscape:zoom="1.4980456"
     inkscape:cx="561.06436"
     inkscape:cy="396.8504"
     inkscape:window-width="2560"
     inkscape:window-height="1369"
     inkscape:window-x="-8"
     inkscape:window-y="-8"
     inkscape:window-maximized="1"
     inkscape:current-layer="layer1" /><defs
     id="defs1" /><g
     inkscape:label="Vrstva 1"
     inkscape:groupmode="layer"
     id="layer1"><rect
       style="fill:#61bbff;stroke-width:3.77953;stroke-linecap:round"
       id="rect29"
       width="1122.5197"
       height="793.70081"
       x="0"
       y="0"
       inkscape:label="MORE" /><g
       id="g29"
       inkscape:label="KOMPLEX"><text
         xml:space="preserve"
         style="font-size:213.384px;font-family:'Cambria Math';-inkscape-font-specification:'Cambria Math, Normal';text-align:start;writing-mode:lr-tb;direction:ltr;text-anchor:start;opacity:1;fill:#000000;stroke-width:19.0166;stroke-linecap:round"
         x="18.428829"
         y="773.60498"
         id="text2"
         inkscape:label="AURIONTH"><tspan
           sodipodi:role="line"
           id="tspan2"
           x="18.428829"
           y="773.60498"
           style="font-style:normal;font-variant:normal;font-weight:normal;font-stretch:normal;font-size:106.692px;font-family:'Berlin Sans FB';-inkscape-font-specification:'Berlin Sans FB, Normal';font-variant-ligatures:normal;font-variant-caps:normal;font-variant-numeric:normal;font-variant-east-asian:normal;fill:#000000;stroke-width:19.0166">Aurionth</tspan></text><path
         id="path56"
         style="opacity:1;stroke-width:12.8325;stroke-linecap:round"
         d="m 1034.8048,18.897638 v 13.418614 h 1.7094 v -7.297406 c 0,-0.441161 -0.011,-0.912515 -0.035,-1.414954 -0.013,-0.502432 -0.032,-0.98058 -0.055,-1.433994 -0.024,-0.465669 -0.048,-0.857581 -0.073,-1.176199 l 3.971,11.322553 h 2.3714 V 18.897638 h -1.7285 v 7.224165 c 0,0.453415 0.01,0.93688 0.018,1.451574 0.024,0.502431 0.05,0.992684 0.073,1.470616 0.037,0.465669 0.073,0.859041 0.1099,1.177659 l -4.0068,-11.324014 z m 3.9431,20.505095 -7.8407,31.312048 c -0.3822,0.159162 -0.7647,0.318618 -1.1367,0.500947 -0.5692,0.270875 -1.1254,0.568052 -1.6669,0.89057 -0.9654,0.60591 -1.8784,1.291879 -2.7289,2.050652 l -1.7709,-0.366188 0.3897,1.646383 c -0.81,0.837121 -1.5464,1.74224 -2.2015,2.705392 -0.3168,0.532729 -0.6091,1.079648 -0.876,1.639062 -0.3089,0.570782 -0.5806,1.159083 -0.8333,1.756242 l -31.30921,7.840838 31.31341,7.840823 c 0.1589,0.381502 0.3163,0.763768 0.4981,1.135191 0.2713,0.569147 0.569,1.125381 0.892,1.666877 0.6055,0.9654 1.2909,1.87822 2.0492,2.72884 l -0.3662,1.77089 1.6464,-0.38963 c 0.8375,0.8105 1.7432,1.54755 2.7069,2.20299 0.5324,0.31625 1.0786,0.60805 1.6376,0.87446 0.5716,0.3095 1.1611,0.58316 1.7592,0.83637 l 7.8393,31.3062 7.8409,-31.31352 c 0.3817,-0.15893 0.7637,-0.31596 1.1352,-0.49801 0.5686,-0.27092 1.1244,-0.56811 1.6655,-0.89058 0.9654,-0.60591 1.8781,-1.29187 2.7287,-2.05065 l 1.771,0.36619 -0.3897,-1.64638 c 0.8105,-0.83754 1.5475,-1.74315 2.203,-2.70687 0.3163,-0.53275 0.608,-1.079675 0.8745,-1.639058 0.3088,-0.57001 0.5821,-1.158417 0.8349,-1.754772 l 31.3105,-7.840831 -31.2109,-7.814469 c -0.1755,-0.421392 -0.3531,-0.841907 -0.5566,-1.250902 -0.2658,-0.537881 -0.5565,-1.063756 -0.8686,-1.576073 -0.6174,-0.999741 -1.3201,-1.944128 -2.1005,-2.82258 l 0.3471,-1.678607 -1.5936,0.377909 c -0.8545,-0.806755 -1.7759,-1.53796 -2.7566,-2.185418 -0.5011,-0.333227 -1.0181,-0.644054 -1.5468,-0.931579 -0.6078,-0.329327 -1.2358,-0.617684 -1.8735,-0.883251 z m 0,4.729691 6.5051,25.977414 0.8012,3.194632 1.4223,5.681772 -8.7286,8.728476 V 71.709347 69.030316 Z m -8.6654,29.878052 -1.3417,5.359525 -5.2732,1.321209 c 0.3936,-0.68959 0.8145,-1.362359 1.2978,-1.993528 0.2013,-0.260151 0.4098,-0.514633 0.6254,-0.76313 0.7848,-0.916692 1.6614,-1.750588 2.6161,-2.488618 0.2355,-0.20407 0.4763,-0.401878 0.7222,-0.593221 0.4361,-0.304482 0.8922,-0.578658 1.3534,-0.842237 z m 17.3325,0.0045 c 0.7272,0.41 1.4362,0.851483 2.099,1.360761 0.2274,0.174702 0.4506,0.354916 0.6694,0.540492 0.957,0.813093 1.8247,1.725907 2.5882,2.722964 0.1742,0.230199 0.3426,0.464634 0.5053,0.703082 0.3053,0.44215 0.5802,0.90356 0.8437,1.371013 l -5.3639,-1.343182 z m -19.058,6.635331 8.7284,8.728477 h -16.0053 -2.679 -24.89781 l 26.06661,-6.528411 3.1522,-0.789507 z m -57.01842,2.016965 1.54386,13.420084 h 2.18686 l 1.26848,-9.926641 c 0.0495,-0.404398 0.0873,-0.815208 0.11129,-1.231867 0.0248,-0.428906 0.0555,-0.772378 0.0923,-1.029717 0.0128,0.257339 0.03,0.600811 0.054,1.029717 0.0375,0.416667 0.0805,0.827469 0.12891,1.231867 l 1.15718,9.926641 h 2.20592 l 1.59951,-13.420084 h -1.58046 l -1.01071,9.780166 c -0.0367,0.392151 -0.0735,0.815065 -0.10988,1.26848 -0.0367,0.441161 -0.063,0.802061 -0.075,1.083916 -0.0367,-0.281855 -0.0799,-0.642755 -0.12884,-1.083916 -0.0487,-0.453415 -0.0904,-0.876329 -0.12749,-1.26848 l -1.1952,-9.780166 h -1.81924 l -1.28752,9.780166 c -0.0615,0.392151 -0.10994,0.815065 -0.14647,1.26848 -0.0375,0.441161 -0.0683,0.802061 -0.0923,1.083916 -0.012,-0.281855 -0.0367,-0.642755 -0.0735,-1.083916 -0.0248,-0.453415 -0.0555,-0.876329 -0.0923,-1.26848 l -0.99309,-9.780166 z m 124.47182,0 v 13.420084 h 7.8116 v -1.63613 h -6.0099 v -4.57736 h 5.3668 v -1.580469 h -5.3668 v -3.989951 h 6.0099 v -1.636137 z m -55.3999,6.710042 h 16.0069 2.6776 24.8978 l -26.0681,6.52841 -3.1493,0.788037 -5.6364,1.412029 z m -1.6611,1.662498 v 16.006828 2.67903 24.89644 l -6.5284,-26.06531 -0.788,-3.15215 -1.4121,-5.636365 z m -15.3653,7.004451 5.3567,1.341721 1.3211,5.273106 c -0.6895,-0.39369 -1.3624,-0.81585 -1.9935,-1.29924 -0.2601,-0.20133 -0.5146,-0.4099 -0.7631,-0.62545 -0.9165,-0.78428 -1.7505,-1.66038 -2.4886,-2.61458 -0.2046,-0.236375 -0.403,-0.478147 -0.5947,-0.725047 -0.3036,-0.435018 -0.575,-0.890608 -0.8379,-1.35051 z m 30.6472,0.02048 c -0.3942,0.690078 -0.8181,1.363491 -1.3022,1.994997 -0.2009,0.25913 -0.409,0.51264 -0.624,0.7602 -0.7847,0.91721 -1.6613,1.75159 -2.6161,2.49008 -0.2359,0.2041 -0.4771,0.40191 -0.7235,0.59323 -0.4357,0.30418 -0.8898,0.57741 -1.3505,0.84077 l 1.3417,-5.358068 z m -15.3375,48.373497 c -0.772,0 -1.4521,0.15358 -2.0404,0.45994 -0.5883,0.2941 -1.0475,0.71555 -1.3784,1.26701 -0.3187,0.5392 -0.479,1.17091 -0.479,1.89393 0,0.88232 0.252,1.64871 0.7544,2.2982 0.5147,0.63724 1.207,1.07758 2.0771,1.32267 l 1.9846,0.53317 c 0.5149,0.13479 0.9135,0.39882 1.1954,0.79097 0.2819,0.37989 0.4233,0.82702 0.4233,1.34171 0,0.68625 -0.2209,1.23705 -0.662,1.65371 -0.429,0.4044 -1.0108,0.60641 -1.7461,0.60641 -0.7721,0 -1.3849,-0.20201 -1.8383,-0.60641 -0.4535,-0.4044 -0.6811,-0.96199 -0.6811,-1.67276 h -1.8193 c 0,1.21321 0.3921,2.16949 1.1763,2.868 0.7843,0.68624 1.8389,1.02972 3.1624,1.02972 0.8456,0 1.581,-0.15889 2.206,-0.47751 0.6371,-0.31861 1.1274,-0.76722 1.4706,-1.34318 0.3431,-0.58821 0.514,-1.27369 0.514,-2.05798 0,-0.95586 -0.2572,-1.77746 -0.7719,-2.46372 -0.5147,-0.6985 -1.2312,-1.16985 -2.1501,-1.41495 l -2.0405,-0.55074 c -0.4658,-0.13481 -0.828,-0.3625 -1.0855,-0.68112 -0.2574,-0.33087 -0.3852,-0.73489 -0.3852,-1.21281 0,-0.58823 0.1899,-1.06636 0.5698,-1.434 0.3922,-0.36764 0.9067,-0.55075 1.5439,-0.55075 0.6372,0 1.1517,0.18311 1.5439,0.55075 0.4044,0.36764 0.6064,0.84577 0.6064,1.434 h 1.8017 c 0,-0.71076 -0.1658,-1.33569 -0.4966,-1.87489 -0.3309,-0.5392 -0.7969,-0.95533 -1.3974,-1.24943 -0.5882,-0.30636 -1.2737,-0.45994 -2.058,-0.45994 z"
         inkscape:label="KOMPAS" /></g><path
       d="m 528.02931,9.214844 c -0.58189,-0.00603 -1.13914,0.045151 -1.66797,0.1660156 -5.59434,1.2785864 -5.75423,9.4413194 -8.32031,14.5742194 -1.9479,3.896357 -6.93225,7.005537 -5.52735,11.128906 1.60855,4.72111 8.41246,8.546209 13.33985,7.773438 6.61991,-1.038212 5.84126,-9.944129 9.24023,-14.417969 3.1565,-4.154692 12.43269,-6.142606 10.61914,-11.388672 -1.23393,-3.569404 -5.2622,-4.555356 -9.03906,-5.740235 -3.13884,-0.984717 -6.123,-2.06958 -8.64453,-2.095703 z m 56.97266,18.771485 c -3.6485,-0.265803 -7.45865,0.97436 -10.59961,2.849609 -2.28306,1.363056 -3.86994,3.680098 -5.47657,5.798828 -2.78032,3.66653 -3.40547,9.098345 -7.10546,11.833985 -1.88727,1.395381 -5.2732,0.131447 -6.97852,1.744141 -2.10439,1.990099 -2.73474,1.490559 -4.61523,2.818359 -2.52865,1.785453 -4.83144,5.622723 -6.58008,8.820313 -1.54156,2.818919 -2.05161,6.539626 -2.84766,9.652344 -2.81691,10.714204 -6.71897,21.48425 -6.63867,32.675782 0.10292,2.49733 1.18446,6.05401 3.19922,7.5332 2.78532,2.04492 6.1899,2.31288 10.01562,2.67188 3.15369,0.29593 7.3192,-0.67131 10.69727,0.92187 2.35264,1.10956 4.18594,5.08345 5.14453,7.07032 1.2954,2.68498 -3.08913,2.98299 -3.54102,5.92968 -0.40923,2.66854 -0.99802,5.66735 0.18165,8.09571 1.39703,2.8758 4.51019,4.73894 7.40429,6.09765 3.99079,1.87358 9.42079,-0.10128 12.99024,2.48633 2.36102,1.71158 2.03808,4.82696 3.94726,7.03125 4.24017,4.89558 11.04335,7.58375 15.89844,10.98047 2.09226,1.46379 0.56523,5.82988 1.57813,8.17383 1.08366,2.50769 2.80708,4.83296 4.9375,6.54297 2.36147,1.89547 5.81158,2.14796 8.74218,2.91015 4.36631,1.13557 9.03145,0.4126 13.49219,1.08789 3.30898,0.50093 5.97704,3.24414 9.31836,3.05469 2.27168,-0.12879 4.26824,-1.58597 6.44922,-2.23437 1.76731,-0.52542 3.54409,-1.61505 5.36719,-1.33985 3.1652,0.47779 5.07641,4.34258 8.21484,4.97266 4.28344,0.85996 8.46867,-0.77288 12.43555,-2.60352 3.28422,-1.51561 5.92747,-4.14715 8.71094,-6.45703 3.57727,-2.96861 8.04499,-2.77355 9.83789,-7.0625 1.05629,-2.52681 -1.0215,-7.2984 0.19922,-9.75 1.78701,-3.5889 3.77955,-5.43684 5.72851,-8.17969 2.78712,-3.92242 5.58676,-8.16958 8.42774,-9.14648 3.83413,-1.3184 8.21526,0.2826 12.14062,-0.73242 3.21552,-0.83147 6.6831,-1.90774 8.99024,-4.29688 2.66902,-2.76386 3.25013,-6.97118 4.60546,-10.5664 1.30764,-3.46871 3.08763,-6.65128 6.47852,-8.57618 3.22469,-1.83055 4.82035,-6.08383 5.34961,-9.7539 0.51381,-3.563 0.13673,-7.90713 -2.30664,-10.550783 -2.14835,-2.324457 -6.70121,0.722617 -8.17578,-2.078125 -2.26063,-4.29375 4.39555,-9.778467 3.49609,-14.546876 -0.51283,-2.718714 -4.56621,-3.556573 -4.26367,-6.30664 0.52389,-4.762211 8.65391,-6.856062 11.49609,-10.712891 2.8057,-3.80733 4.18329,-6.870687 3.9375,-11.593751 -0.31701,-6.091498 -3.7228,-12.315829 -8.35937,-16.279297 -5.05284,-4.319309 -6.21051,-5.336909 -12.80274,-6.191406 -3.71203,-0.481161 -11.66534,0.119021 -15.23632,-0.136719 -3.9347,-0.28179 -7.72532,4.336157 -11.66993,4.373047 -3.10108,0.029 -6.36312,-3.411611 -9.43945,-3.019531 -2.3375,0.297916 -4.86764,2.538543 -6.87695,3.769531 -1.47254,0.902137 -3.39196,1.776024 -4.49414,3.105469 -1.37475,1.658228 -1.73938,2.180837 -2.2168,4.28125 -0.3681,1.619621 1.69402,3.196731 -0.46484,6.773438 -1.11394,1.84553 -3.69974,2.239109 -5.375,3.595703 -2.09063,1.692952 -3.51238,4.186641 -5.78321,5.628906 -2.81907,1.790466 -6.40925,1.995773 -9.37695,3.527344 -2.69573,1.391212 -4.57448,4.479916 -7.54688,5.085938 -3.50303,0.71421 -7.78578,0.254762 -10.53125,-2.035157 -2.52457,-2.105675 -1.7939,-5.711399 -3.7207,-8.375 -2.05101,-2.835309 -7.69505,-4.937871 -10.63672,-6.929688 -2.43505,-1.648782 -3.53697,-3.238188 -4.02344,-6.09375 -0.57585,-3.380162 -0.58592,-6.077798 -1.93359,-8.484375 -1.10906,-1.980486 -4.71122,-2.322864 -6.7832,-2.943359 -3.86172,-1.156467 -7.61766,5.362986 -11.41211,4.001953 -1.94081,-0.696151 -1.65286,-3.936045 -3.20703,-5.291016 -2.29765,-2.003165 -5.35238,-3.407419 -8.39258,-3.628906 z m -482.4883,3.15625 c -0.89256,0.07157 -1.79338,0.463983 -2.624996,0.802734 -3.786553,1.542428 -7.378885,3.759017 -10.376953,6.539063 -3.619611,3.35639 -6.831811,7.379526 -8.81836,11.898438 -2.209257,5.025516 -0.6039,11.290353 -3.11914,16.169922 -0.735759,1.427373 -2.684103,2.015533 -3.324219,3.488281 -1.222758,2.813263 0.556533,6.322321 -0.539063,9.1875 -0.298897,0.781669 -1.096441,1.269765 -1.5625,1.964844 -0.929167,1.385758 -1.107435,3.162979 -2.394531,4.22461 -1.138479,0.939047 -2.69887,0.184651 -4.251953,1.529297 -1.987216,1.720514 -4.008148,3.501346 -6.376954,4.640625 -2.577239,1.239525 -5.670361,1.083271 -8.273437,2.267578 -2.915611,1.326499 -6.132211,2.718909 -8.003907,5.318359 -4.001521,5.5574 0.694688,16.6295 -5.357422,19.83399 -3.213559,1.70153 -6.761452,-2.77516 -10.310547,-3.56641 -2.840352,-0.63324 -5.026284,-2.17616 -7.578125,-0.77734 -2.667284,1.4621 -4.922305,4.99195 -5.171875,8.02343 -0.09478,1.15126 0.901272,2.16322 1.017578,3.3125 0.562931,5.56261 -0.878393,4.31539 2.101563,9.14649 1.742945,2.82566 5.82425,3.21535 8.546875,5.11523 1.368771,0.95514 2.514519,2.2057 3.894531,3.14453 3.449753,2.34688 7.400107,3.88607 10.890625,6.17188 2.8984,1.89805 5.989077,3.67021 8.312501,6.24023 2.568125,2.8407 3.389504,6.97522 5.9375,9.83399 1.721738,1.93173 3.682232,3.94637 6.142578,4.74804 4.592377,1.49636 9.670561,-0.80148 14.484375,-0.40625 4.488753,0.36854 8.807484,3.22972 13.263672,2.57618 5.609244,-0.82264 9.69943,-6.05684 15.060544,-7.90039 3.4861,-1.19878 7.48366,-0.54589 10.88282,-1.97266 3.48567,-1.46307 5.87635,-4.85685 9.25781,-6.54688 1.99668,-0.99792 4.1444,-2.13653 6.375,-2.05273 2.73183,0.10261 4.88346,2.74942 7.5957,3.0918 3.89359,0.49151 7.82061,0.25466 10.94727,-2.11719 3.40327,-2.58168 2.89363,-8.11001 5.80664,-11.23438 2.98174,-3.19809 7.78068,-3.49703 11.25781,-4.5039 2.98603,-0.86466 3.82412,-3.61547 4.00196,-6.10547 0.20494,-2.8695 -2.58493,-4.32444 -3.54493,-7.51758 -1.55446,-5.17037 7.95088,-6.76136 9.10743,-11.15234 1.09,-4.1383 -3.39767,-8.03342 -3.66211,-12.30469 -0.29655,-4.790025 3.77718,-9.61003 2.37304,-14.19922 -1.1594,-3.789308 -5.69516,-5.26769 -8.68164,-7.490235 -2.80337,-2.086277 -6.95161,-5.454115 -5.77929,-8.746094 3.50648,-9.846487 6.95712,-9.981615 8.8457,-13.496094 1.74035,-3.238644 4.97842,-6.032918 5.2539,-9.699219 0.23232,-3.091858 -0.98622,-6.537299 -3.1582,-8.75 -1.90823,-1.944002 -4.91071,-2.913316 -7.63476,-2.916016 -3.37497,-0.0033 -6.5174,1.949696 -9.46485,3.59375 -2.95088,1.645959 -5.4981,3.948872 -8.04101,6.173828 -2.74981,2.405984 -5.15486,6.610644 -8.63282,7.730469 -2.43175,0.782969 -4.75723,0.434581 -6.70312,-1.220703 -2.48622,-2.114918 -0.94646,-6.736365 -3.42578,-8.859375 -0.93258,-0.798565 -2.10996,-0.728902 -3.29688,-1.042969 -2.47997,-0.656216 -3.80893,-2.694681 -6.36328,-2.93164 -2.31799,-0.215032 -5.87215,2.045067 -7.75195,0.671875 -1.8629,-1.360851 0.20824,-4.10837 -0.98633,-6.082032 -1.11984,-1.850201 -3.14325,-3.354263 -5.25977,-3.798828 -0.29292,-0.06153 -0.58919,-0.07268 -0.88672,-0.04883 z m 227.32423,6.46875 c -1.29235,0.02352 -2.59534,0.291855 -3.82617,0.791016 -2.67149,1.083419 -4.31941,3.963319 -5.72461,6.480469 -2.4062,4.310211 -1.65982,8.667674 -4.24805,12.871094 -1.66789,2.708753 -5.91588,4.880258 -6.96094,7.884765 -1.12915,3.246221 -0.50828,7.245797 1.81641,9.777344 2.5756,2.804778 6.68438,3.477139 10.37695,2.546875 4.4268,-1.115236 7.32883,-6.123081 10.90625,-8.958984 3.76576,-2.9852 10.47271,-3.328651 11.49805,-8.023438 0.88858,-4.068563 -4.54821,-6.36122 -5.65234,-9.154297 -1.39463,-3.52792 1.96707,-8.928003 -2.17579,-12.232422 -1.38447,-1.104276 -3.02205,-1.735471 -4.72461,-1.923828 -0.42563,-0.04709 -0.85437,-0.06643 -1.28515,-0.05859 z m 52.61719,20.541016 c -0.39391,-4.81e-4 -0.82529,0.04641 -1.3086,0.150391 -3.26389,0.702189 -8.03983,3.58753 -9.12695,6.744141 -1.20584,3.501311 -0.32872,7.968444 1.86328,10.953125 0.87614,1.192969 3.93209,0.401945 3.72266,1.867187 -0.24023,1.68073 -5.81838,0.974605 -5.38086,3.550782 0.55564,3.271716 5.30165,6.299493 7.99414,6.761719 3.24742,0.557493 6.04328,-4.222007 9.21094,-5.128907 3.13909,-0.898717 5.64756,0.779364 8.58593,-0.644531 2.4218,-1.173569 4.69513,-3.154273 5.79297,-5.611328 1.47157,-3.293568 3.47399,-7.69408 1.45508,-10.683594 -1.60949,-2.383263 -7.42365,-1.351744 -10.91016,-1.779297 -2.6296,-0.322469 -2.87832,-2.219277 -4.95312,-2.851563 -2.83739,-0.864675 -3.88686,-2.688454 -5.86523,-3.195312 -0.32973,-0.08448 -0.68617,-0.132332 -1.08008,-0.132813 z m 70.17383,3.046875 c -4.06013,-0.04779 -8.37695,1.494587 -10.45508,4.529297 -2.1519,3.142427 0.40777,7.547763 2.11523,9.970704 1.70921,2.425424 4.31127,17.096748 11.32813,21.537109 5.22168,3.30434 13.56991,4.33742 18.52734,0.648438 2.36511,-1.759964 2.84365,-5.669012 2.24024,-8.554688 -1.06586,-5.097185 -6.69444,-7.995699 -9.6836,-12.259766 -3.36478,-4.799882 -3.83726,-12.712441 -9.2539,-14.953125 -1.20844,-0.499892 -2.58232,-0.794211 -4.00977,-0.886719 -0.26765,-0.01734 -0.53792,-0.02806 -0.80859,-0.03125 z m 467.85352,11.0625 c -4.08648,0.163654 -7.66226,2.617695 -11.31445,5.089844 -3.63026,2.4573 -8.95955,1.065579 -12.44922,3.71875 -2.23709,1.700852 -3.61839,4.170256 -4.48437,6.843751 -1.51144,4.666163 5.50878,8.598645 3.95312,12.332035 -1.66674,3.99997 -5.00673,3.02908 -7.02148,6.60742 -1.53471,2.72576 -4.49682,8.12899 -2.77149,10.73828 2.43034,3.67549 7.82164,1.92188 12.38867,1.35742 6.61739,-0.81787 13.81707,4.4745 19.23633,0.58985 4.58991,-3.29015 3.54009,-10.80386 6.13477,-15.93165 1.40909,-2.78473 6.00959,-3.18569 7.55273,-5.898433 0.91664,-1.611391 -0.0379,-3.748957 0.41407,-5.546875 0.99453,-3.956003 3.98254,-7.287501 4.9707,-11.183594 0.47963,-1.891082 -0.35243,-4.250017 -1.78516,-5.574219 -3.27914,-3.030737 -8.6092,-2.505583 -13.03906,-3.066407 -0.6063,-0.07676 -1.20137,-0.09955 -1.78516,-0.07617 z M 386.56446,95.607424 c -0.99355,0.0023 -2.00151,0.157294 -2.97265,0.429688 -4.85809,1.36264 -7.03062,6.972958 -7.19336,11.933598 -0.19727,6.0133 1.56809,13.03263 5.36328,16.90234 5.62049,5.73085 16.77313,6.19745 24.09961,3.60156 4.52484,-1.60322 7.19182,-8.00378 6.13086,-12.68554 -0.6365,-2.80872 -4.25775,-3.92266 -6.6875,-5.46875 -2.96899,-1.88924 -7.0579,-2.05555 -9.51563,-4.57422 -1.93816,-1.98622 -1.65712,-5.44807 -3.42187,-7.589848 -1.09192,-1.3252 -2.50879,-2.073191 -4.04102,-2.380859 -0.57458,-0.115376 -1.16559,-0.16936 -1.76172,-0.167969 z m 378.8379,2.910156 c -2.43352,0.01968 -5.39849,1.70454 -7.2539,3.2793 -2.05622,1.7452 -2.66928,5.7418 -5.34571,6.07422 -2.88709,0.35859 -8.84416,1.94188 -10.44726,7.5 -1.48073,5.13385 1.91536,10.6518 4.25976,15.45312 2.09189,4.28418 7.46874,6.82779 8.53516,11.47461 0.45532,1.98401 -1.54937,4.00547 -1.14258,6 0.53467,2.62151 2.15308,5.25371 1.03125,7.79883 -1.04339,2.36716 -1.53425,5.88248 -4.34766,5.85938 -2.40171,-0.0197 -5.37123,0.60555 -7.31836,2.01171 -1.81482,1.31061 -2.32212,3.90994 -3.99414,5.39844 -0.82363,0.73324 -1.84989,1.22562 -2.86914,1.64649 -8.03465,3.31768 -6.95206,5.34169 -11.0664,7.64648 -2.509,1.40551 -5.62825,1.28149 -8.4961,1.49609 -4.18114,0.31287 -7.55415,1.95153 -9.39648,5.24805 -1.97108,3.5269 -2.25573,8.17935 -5.19531,10.95117 -3.82412,3.60588 -9.65317,4.18816 -14.61915,5.91016 -2.92017,1.01259 -5.84016,2.17446 -8.90234,2.59375 -2.72162,0.37266 -5.72495,-1.19609 -8.24023,-0.0918 -2.11785,0.9298 -3.41417,3.19792 -4.63868,5.16016 -0.90738,1.45404 -0.60072,3.68048 -1.92578,4.76758 -1.43312,1.17575 -3.77029,0.27735 -5.46289,1.0332 -2.20903,0.98647 -4.17743,2.58518 -5.76562,4.41016 -2.19995,2.52796 -2.08631,7.00688 -4.94727,8.75195 -2.08392,1.27111 -5.01254,-0.5195 -7.31641,0.28711 -2.92389,1.02369 -5.47318,4.38424 -8.48828,5.0957 -6.04133,1.42553 -11.4457,-1.76827 -17.71093,-1.39258 -3.87297,0.23224 -7.7694,0.99018 -11.62696,0.57422 -3.89734,-0.42025 -7.62658,-1.84949 -11.35156,-3.07031 -3.97425,-1.30252 -9.49667,-2.00246 -12.34961,-5.06055 -2.41504,-2.5887 -1.33341,-7.82968 -3.9043,-10.26367 -1.36347,-1.29087 -2.83904,0.71714 -4.04883,-0.71875 -2.76717,-3.28433 -0.2231,-8.61916 -0.96289,-12.84961 -0.47975,-2.74341 -1.74368,-5.30842 -2.24023,-8.04883 -0.26881,-1.48357 0.0145,-3.05411 -0.39258,-4.50586 -0.50199,-1.79045 -2.06053,-3.18524 -2.47461,-4.99804 -0.92143,-4.0339 1.38739,-8.47167 0.13086,-12.41407 -0.88257,-2.7691 -4.16783,-4.31108 -5.12109,-7.05664 -0.85432,-2.4606 0.57322,-5.36124 -0.31836,-7.80859 -0.80131,-2.19955 -2.25723,-4.40429 -4.29492,-5.55664 -1.91604,-1.08355 -4.231,-0.42286 -6.45508,-0.56445 -3.1561,-0.20097 -5.71676,-1.29289 -8.82032,-1.64649 -3.83619,-0.43707 -8.31081,-1.64489 -12.10351,-0.92187 -3.3024,0.62955 -6.299,2.60556 -8.91211,4.7207 -2.65715,2.15079 -5.5759,2.98498 -8.59375,2.38672 -3.99591,-0.79216 -7.5935,-2.96833 -11.46094,-4.24805 -4.37281,-1.44694 -8.67568,-3.44682 -13.26172,-3.875 -3.59164,-0.33534 -7.40655,-0.2393 -10.77148,1.06055 -2.40831,0.93031 -4.35235,2.8332 -6.21485,4.62109 -2.39722,2.30119 -2.95498,7.98645 -6.26953,7.75 -3.24337,-0.23137 -2.49242,-6.30414 -4.99609,-8.3789 -3.0475,-2.52542 -7.19335,-3.58527 -11.15039,-3.66797 -3.14993,-0.0658 -6.87976,0.13601 -9.00391,2.46289 -2.60577,2.85446 -5.1642,5.17174 -8.70312,5.2832 -3.03042,0.0954 -6.08874,-0.0326 -9.08399,0.4375 -2.23206,0.35032 -4.34964,1.22932 -6.54492,1.76367 -3.41173,0.83044 -6.93677,1.20802 -10.29297,2.24024 -2.40472,0.73959 -4.70991,1.91362 -7.00391,3.37695 -3.10422,1.98017 -6.18933,4.14491 -9.47461,3.25195 -1.35042,-0.36705 -1.37845,-2.5814 -2.56445,-3.32421 -2.09401,-1.31152 -4.78522,-1.48388 -7.25586,-1.51368 -3.43158,-0.0414 -6.70404,1.6121 -10.12695,1.85938 -4.14283,0.29929 -8.36629,-1.21742 -12.45117,-0.46485 -2.64823,0.48789 -4.80026,2.6047 -7.43555,3.15821 -2.20529,0.4632 -4.63993,-0.68033 -6.75977,0.084 -1.57591,0.56818 -2.27028,2.80676 -3.9082,3.15821 -2.2021,0.4725 -4.28765,-1.86244 -6.53516,-1.7168 -2.58928,0.16779 -5.6488,0.86034 -7.20898,2.93359 -2.57267,3.41871 0.22389,8.78804 -1.35742,12.76367 -0.48936,1.23032 -1.94832,1.91658 -2.40821,3.15821 -0.61005,1.64706 -0.96498,3.63336 -0.30664,5.26172 0.83579,2.06725 1.92989,4.45803 4.00977,5.58007 2.64247,1.42553 6.09663,2.35225 6.92773,5.06055 0.48323,1.5747 0.30915,2.86204 -0.89648,3.98438 -2.43072,2.26278 -6.54107,1.99923 -9.83594,1.58398 -2.97921,-0.37547 -5.43564,-2.10082 -8.25976,-3.12109 -4.87725,-1.76201 -9.80528,-3.61603 -14.93946,-4.34571 -4.08803,-0.581 -8.2656,0.26438 -12.38672,0.008 -4.58128,-0.2854 -9.08584,-2.07362 -13.66211,-1.7168 -2.90099,0.2262 -5.47907,2.38357 -8.38867,2.41797 -2.75325,0.0326 -5.89124,-0.31527 -7.98828,-2.09961 -3.54287,-3.01459 -2.19735,-9.65399 -5.66406,-12.75586 -3.76332,-3.36727 -9.43182,-5.21264 -14.44141,-4.57617 -4.58113,0.58203 -7.41381,5.74065 -11.74023,7.35547 -5.01529,1.87194 -10.73005,0.97087 -15.86719,2.47656 -3.21268,0.94163 -6.73059,1.78074 -9.18946,4.05273 -2.51912,2.32767 -4.69218,5.63403 -4.88281,9.0586 -0.24005,4.31243 3.47696,7.92044 4.84375,12.01758 1.19651,3.58671 1.84926,7.08508 2.27735,10.84179 0.29231,2.56548 2.46376,6.32808 0.38476,7.85938 -1.05445,0.77666 -2.47948,-1.03011 -3.78906,-1.03711 -1.79679,-0.0102 -3.98996,0.0487 -5.21484,1.36328 -2.63976,2.83315 -1.68128,7.57273 -2.13868,11.41797 -0.60106,5.05291 -2.45198,10.43762 -0.78711,15.24609 1.558,4.49983 5.66555,7.80175 9.40039,10.75586 3.71132,2.93551 8.61884,4.38872 12.55274,6.62891 2.38639,1.35894 4.13423,4.48044 2.87305,6.91992 -1.25739,2.43216 -4.27445,3.82219 -6.9043,4.58399 -4.06078,1.1763 -9.41461,-1.38388 -12.61133,1.38281 -5.3882,4.66335 -6.5454,13.84136 -8.5957,20.66601 -1.13644,3.78277 -0.78213,8.13043 -2.83008,11.50782 -1.20425,1.986 -4.23295,2.50409 -5.23047,4.60156 -1.30455,2.74305 -0.81406,6.10507 -0.35352,9.10742 0.53299,3.47465 3.75376,6.42038 3.54883,9.92969 -0.1337,2.28952 -2.68651,3.90203 -3.05273,6.16602 -0.68721,4.24839 0.12333,8.81697 1.78906,12.78515 1.29963,3.09603 4.10473,5.31574 6.14258,7.98438 3.69888,4.84381 9.73499,7.20334 14.69727,10.75976 1.34368,0.963 3.8576,2.94706 -0.47852,5.54102 -3.60922,2.15913 -6.20566,2.47354 -8.34961,6.0918 -2.10185,3.54721 -2.5401,8.54861 -0.91016,12.33593 2.03977,4.7396 8.26703,5.70296 11.34571,9.84375 2.02514,2.72378 4.49238,6.06979 3.89062,9.41016 -0.78927,4.38126 -6.53797,4.93919 -7.84961,9.19336 -1.45522,4.71983 -1.50124,10.96991 0.98047,15.24023 1.75352,3.0173 4.75372,6.05694 8.2168,6.48829 5.09658,0.63482 9.77183,0.13363 14.26367,1.01562 4.25479,0.83545 9.13284,-0.53144 12.91016,1.59766 1.97406,1.11269 2.83964,3.53285 4.20703,5.33984 1.2679,1.67551 2.21632,3.61688 3.70508,5.09961 2.43685,2.42698 6.43998,3.1847 8.37304,6.0293 1.33404,1.96311 1.83934,4.53287 1.74024,6.90429 -0.11765,2.81405 -1.87735,5.31175 -2.74219,7.99219 -0.82907,2.56957 -1.98635,4.42009 -2.28516,7.10352 -0.1857,1.66764 -0.19637,4.06732 0.30079,5.66992 0.55722,1.79623 1.91491,3.38077 3.26367,4.69141 2.31726,2.25175 5.03689,4.13354 8.26758,4.18554 3.37459,0.0543 6.30506,-1.71499 8.85351,-3.92773 1.91787,-1.66523 3.01406,-4.09415 4.36328,-6.24609 1.10077,-1.75568 1.31002,-4.27873 3.03711,-5.42383 0.96748,-0.64146 2.48156,-1.00791 3.46094,-0.38477 1.75309,1.11542 1.35869,3.92852 2.00195,5.9043 0.95075,2.92024 0.84341,6.38422 2.7461,8.79492 2.96146,3.75218 7.97204,5.3529 12.32226,7.33398 4.16163,1.8952 8.99788,0.61938 13.10157,1.72852 3.83548,1.03665 6.26123,4.95277 9.74804,6.85742 2.46999,1.34921 5.06775,2.59854 7.82032,3.18555 2.87367,0.61283 5.87797,0.50696 8.80859,0.29492 3.88755,-0.28128 7.62457,-1.7583 11.50977,-2.07031 4.52096,-0.36307 9.10541,0.82157 13.60351,0.24023 2.23065,-0.28829 4.26159,-1.57342 6.4961,-1.83008 2.87418,-0.33013 5.79367,0.71006 8.66992,0.39844 4.58552,-0.49681 8.78764,-4.14985 13.30664,-3.22656 4.11666,0.84109 8.19992,2.50549 12.46875,1.90039 5.11277,-0.72473 8.45594,-3.99146 12.38476,-4.42969 2.28678,-0.25508 4.58984,1.66099 6.83985,2.37696 2.56667,0.81672 5.06452,0.7678 7.16211,2.3457 2.30469,1.73369 2.61087,5.41029 4.63476,7.46484 1.47153,1.49382 3.7119,2.10407 5.11524,3.66211 1.22764,1.36298 2.38829,2.97888 2.71875,4.78321 0.37447,2.04461 -0.17334,3.78873 -0.66406,5.80859 -0.6344,2.61126 -1.49339,4.78215 -1.55079,7.46875 -0.0519,2.4305 -0.16243,5.15927 1.48047,6.95117 2.61179,2.84866 6.53993,4.53081 10.35547,3.91602 2.69659,-0.43449 4.31736,-2.88322 6.3418,-4.7168 2.29243,-2.07631 3.6039,-7.49527 6.55469,-6.56836 1.45186,0.45606 0.94997,2.98182 0.79883,4.4961 -0.23878,2.39234 -3.05987,4.34549 -2.64063,6.71289 0.77291,4.36458 4.69841,8.3212 8.82031,9.95117 3.70119,1.46361 8.43932,-1.36815 12.27149,1.39648 3.16822,2.28564 7.56362,2.59577 11.3457,1.61719 4.9177,-1.27242 7.39472,-6.87774 11.92383,-9.17773 5.19012,-2.63567 13.07945,-0.55123 16.74609,-5.07227 4.27245,-5.26802 4.33091,-10.99872 8.99219,-15.10938 3.81756,-3.3666 9.28037,-7.68551 10.58789,-13.06836 0.85967,-3.53915 -0.74986,-7.19064 -1.40429,-10.77343 -0.51782,-2.83489 -1.89659,-5.61167 -1.66797,-8.48438 0.19097,-2.39957 0.82777,-5.04013 2.49609,-6.77539 1.60548,-1.6699 4.7655,-1.80441 6.42188,-3.42383 1.61893,-1.5828 1.08231,-3.90311 2.73632,-5.44922 1.40736,-1.31555 3.50925,-1.99495 5.43555,-1.96875 3.29574,0.0448 6.11547,2.46055 9.20117,3.61914 2.33368,0.87623 4.91022,1.22588 7.04102,2.51954 3.27104,1.98592 5.06262,5.96835 8.41992,7.80468 2.97614,1.62785 6.45945,2.52364 9.85156,2.55274 3.99609,0.0343 7.65833,-2.76044 11.6543,-2.80664 4.35486,-0.0504 8.42615,2.44373 12.76953,2.76367 4.26298,0.31402 8.54744,-1.31007 12.79688,-0.84766 3.00873,0.3274 6.49079,0.48678 8.71875,2.53516 4.19206,3.85415 2.35005,11.68548 6.12695,15.94727 4.46333,5.03635 12.14749,5.86069 17.83789,9.45312 2.93121,1.85051 5.11981,4.9373 8.34766,6.20117 3.20598,1.25531 7.0519,2.33257 10.26953,1.10742 1.72292,-0.65602 2.63936,-2.59943 3.71094,-4.09961 1.14586,-1.60418 1.43812,-3.81165 2.86133,-5.17578 1.86828,-1.79073 3.1297,-3.97066 5.70898,-3.75976 3.15215,0.25774 5.91025,4.16663 8.22266,6.32422 1.99854,1.86474 4.33518,3.54121 6.60742,5.06054 3.1415,2.10056 5.92746,4.02791 9.69922,3.79297 2.50304,-0.15591 5.22632,-1.38356 7.32031,-2.76367 1.85471,-1.22241 2.71425,-4.32298 4.92969,-4.48437 2.88116,-0.20988 4.40193,4.07643 7.1875,4.84179 3.97405,1.09191 10.88758,-0.26242 14.70312,-1.82031 4.90931,-2.00447 4.70495,-7.34665 9.61328,-9.35352 4.08786,-1.6714 8.52607,-3.02128 10.60352,-7.20703 2.26063,-4.55482 3.85528,-9.74451 9.63477,-13.46484 4.49713,-2.89486 7.79164,-1.50518 11.82617,0.1289 4.18123,1.6935 8.51218,5.64877 12.41601,8.16016 4.91538,3.16212 9.32731,4.82987 12.52344,9.52539 1.96045,2.88016 1.78441,6.85039 3.73633,9.73633 2.49566,3.68986 8.46553,4.03572 10.85547,7.79492 0.72056,1.13338 1.30915,2.74332 0.73828,3.95899 -0.89246,1.90049 -4.38301,1.28979 -5.50195,3.0664 -1.11789,1.77494 -0.97257,4.26708 -0.38672,6.28125 1.10501,3.79907 3.84783,7.17809 6.9707,9.60743 3.96395,3.08363 11.17592,1.97677 13.75977,6.2832 4.48735,7.47894 2.97264,11.18043 6.70508,16.24805 3.23897,4.39762 6.88094,8.4325 12.1582,9.83984 4.84149,1.29112 12.77217,0.0119 15.11133,-1.26367 2.74716,-1.49803 6.99139,-0.28156 9.18164,1.95312 2.24961,2.29524 0.90934,6.38556 1.81641,9.46875 0.78632,2.67276 0.95258,6.00477 3.12109,7.75391 2.21137,1.78372 5.81193,0.26631 8.40039,1.4375 1.23678,0.5596 2.97432,1.21667 3.16602,2.56055 0.33194,2.32706 -3.47577,3.50704 -4.02344,5.79297 -0.63644,2.65645 -0.43105,5.86864 1.11719,8.11914 4.20914,6.11837 12.14249,9.94019 19.52734,10.72461 5.93043,0.62993 12.17229,-1.82811 17.14063,-5.12696 3.92818,-2.6082 8.92659,-6.2013 8.99609,-10.91601 0.04,-2.71227 -3.68955,-4.05019 -4.98828,-6.43164 -1.15699,-2.12155 -2.52041,-4.42397 -2.40821,-6.83789 0.0865,-1.86018 1.84227,-3.27725 2.3379,-5.07227 0.47697,-1.72735 0.94691,-3.5929 0.57421,-5.3457 -0.97048,-4.56413 -7.72089,-7.49084 -7.02929,-12.10547 0.27402,-1.82838 3.10724,-7.39039 5.24804,-2.53125 2.98304,6.77082 2.30418,9.07589 6.36914,12.23437 2.23865,1.73944 5.66406,0.96214 8.2168,2.19532 4.61049,2.22725 7.59934,7.20318 12.33008,9.1621 2.88478,1.19454 6.23869,0.59746 9.26563,1.36329 4.76602,1.20582 8.94493,4.85795 13.85742,5.04882 2.48241,0.0965 5.32787,-0.34397 7.17969,-2 2.40158,-2.14765 3.46655,-5.74648 3.61525,-8.96484 0.091,-1.97375 -0.6124,-4.02895 -1.70119,-5.67773 -1.27037,-1.92366 -3.38596,-3.16278 -5.31446,-4.42579 -2.21709,-1.45201 -5.31091,-1.61616 -7.10546,-3.5664 -0.86292,-0.93778 -1.35039,-2.27472 -1.42579,-3.54688 -0.10007,-1.68902 0.52254,-3.41038 1.32422,-4.90039 1.35532,-2.51901 4.35282,-3.89753 5.67969,-6.43164 1.54793,-2.95631 2.948,-6.43216 2.39258,-9.72265 -1.18845,-7.04075 -10.01909,-11.02002 -11.66211,-17.96876 -1.02873,-4.35076 2.17075,-8.90949 1.49023,-13.32812 -0.73083,-4.74531 -5.60368,-8.3741 -5.83203,-13.16992 -0.17044,-3.57943 2.61923,-6.70147 3.39844,-10.19922 0.59715,-2.6805 1.22381,-5.45019 0.95898,-8.1836 -0.31159,-3.21604 -2.60314,-6.01858 -2.95507,-9.23046 -0.47807,-4.36307 2.08527,-8.81366 1.20312,-13.11329 -0.72545,-3.5359 -2.96465,-6.65343 -5.15625,-9.52148 -1.85816,-2.43169 -4.27632,-4.39665 -6.64062,-6.33984 -1.62426,-1.33495 -3.73762,-2.08111 -5.15625,-3.63282 -1.8399,-2.0125 -2.3496,-4.98763 -4.09571,-7.08203 -2.321,-2.78397 -6.45105,-3.91716 -8.27929,-7.04687 -1.41281,-2.41856 -1.73507,-5.45221 -1.60157,-8.25 0.13269,-2.78084 0.25314,-6.19601 2.36524,-8.00977 1.38897,-1.19277 4.15467,0.56022 5.4414,-0.74219 1.97857,-2.00269 1.42583,-5.59232 1.03907,-8.38086 -0.4218,-3.04119 -1.9426,-5.88987 -3.57813,-8.48828 -1.15729,-1.83861 -3.02802,-3.13254 -4.32031,-4.8789 -1.64035,-2.21671 -3.72042,-4.36309 -4.32031,-7.05469 -0.57151,-2.56428 -0.28595,-5.47625 0.87304,-7.83399 3.47401,-7.06719 12.40591,-10.00999 16.99414,-16.41015 1.69659,-2.36659 3.20822,-5.03535 3.72852,-7.90039 0.45306,-2.49476 -0.10719,-5.09714 -0.62109,-7.58008 -0.7905,-3.81935 -2.79761,-7.30226 -3.75196,-11.08399 -0.84664,-3.35492 -2.40569,-6.84002 -1.73437,-10.23437 0.48104,-2.43227 1.59595,-5.50474 3.9414,-6.3086 3.36545,-1.15344 7.44942,2.98454 12.12305,1.4336 2.04869,-0.67986 4.37209,-2.05709 6.0586,-3.4043 3.00196,-2.39801 4.46946,-4.83197 5.66796,-8.48242 1.06384,-3.24027 -0.21149,-7.13048 1.40625,-10.13281 0.86499,-1.60533 2.99745,-2.16558 4.11133,-3.60938 1.34073,-1.73786 2.79269,-3.69905 2.94531,-5.88867 0.2738,-3.92824 -1.17348,-8.233 -3.76562,-11.19727 -2.14511,-2.45307 -6.31801,-2.1751 -8.76758,-4.32422 -2.57371,-2.25803 -6.49216,-5.21082 -5.70508,-8.54297 0.51715,-2.18941 3.85821,-2.32167 5.86328,-3.34179 1.65098,-0.83997 4.03278,-0.74736 5.06836,-2.28321 1.14784,-1.70234 0.77379,-4.17219 0.23829,-6.15429 -0.6424,-2.37778 -2.28138,-4.4383 -3.9668,-6.23438 -2.06637,-2.20205 -4.81713,-3.64591 -7.31836,-5.33789 -1.97376,-1.33516 -3.82583,-2.96763 -6.06055,-3.79492 -6.08401,-2.25229 -12.76915,-2.49918 -19.24414,-2.90234 -1.60185,-0.0997 -3.27076,0.56902 -4.8125,0.12304 -2.16997,-0.62771 -4.33195,-1.91772 -5.63672,-3.76172 -1.15063,-1.62615 -2.1044,-3.90112 -1.47461,-5.79101 0.74109,-2.22389 4.21445,-2.43676 5.47656,-4.41211 1.46383,-2.29106 2.43446,-5.23478 1.97266,-7.91406 -0.36829,-2.13678 -1.96681,-3.98878 -3.5957,-5.41993 -2.53125,-2.22397 -6.76034,-2.0078 -9.07227,-4.45898 -2.00166,-2.12221 -1.68066,-5.70568 -3.39453,-8.06641 -1.52402,-2.09922 -4.09903,-3.21016 -5.88477,-5.09179 -2.40392,-2.53301 -3.61758,-6.20362 -6.43164,-8.27149 -1.80187,-1.32408 -4.24393,-1.43041 -6.2832,-2.34765 -2.27055,-1.02127 -5.21243,-1.43261 -6.59961,-3.50001 -1.757,-2.61857 0.01,-6.40513 -0.93359,-9.41406 -0.75469,-2.40665 -1.88622,-4.83996 -3.68555,-6.60742 -2.27448,-2.23421 -6.93644,-1.69594 -8.43555,-4.50977 -0.82775,-1.55369 -0.34324,-3.72603 0.53125,-5.2539 1.5027,-2.62545 5.97029,-2.65518 7.32227,-5.36133 1.28085,-2.56377 1.30613,-6.10239 -0.10352,-8.59766 -2.2451,-3.97412 -9.22376,-3.33813 -11.64257,-7.20898 -1.48868,-2.38234 0.10056,-5.74237 -0.84766,-8.38672 -0.99021,-2.76145 -2.31203,-5.13986 -4.88086,-6.55664 -3.11353,-1.71719 -7.11385,-1.26276 -10.66211,-1.0332 -8.03716,0.51998 -16.00878,5.44175 -23.875,3.71289 -3.89982,-0.85711 -6.32444,-5.0163 -9.97461,-6.63477 -3.03495,-1.34568 -6.38472,-1.87676 -9.65625,-2.44141 -4.44242,-0.76673 -7.02176,-1.58748 -11.51758,-1.91992 -2.93104,-0.21673 -5.66749,-2.18665 -7.06836,-4.07617 -1.51209,-2.03955 -4.97721,-2.65936 -5.73047,-5.08398 -0.70859,-2.28084 1.33016,-4.75558 0.91407,-7.10743 -0.62792,-3.54919 -2.62447,-6.86687 -4.97461,-9.59961 -1.76436,-2.0516 -4.49562,-3.032 -6.56836,-4.77148 -1.55893,-1.30828 -2.68046,-3.13892 -4.39063,-4.24219 -1.93111,-1.2458 -4.15636,-3.00166 -6.4082,-2.54297 -2.95682,0.60229 -3.64602,5.2193 -6.4375,6.36524 -1.76307,0.72376 -4.16247,1.09715 -5.7168,-0.006 -2.19627,-1.55836 -0.97441,-5.53402 -2.67383,-7.62305 -1.87861,-2.3093 -3.61107,-4.04361 -6.58789,-4.01953 z m -318.81251,9.85156 c -1.56961,0.0348 -3.16937,0.44185 -4.40625,1.32422 -2.17714,1.55313 -2.07997,5.14373 -4.10156,6.89453 -2.02808,1.75642 -5.32379,1.74681 -7.16601,3.69727 -1.99668,2.11399 -2.92718,4.72347 -3.14649,7.62305 -0.29804,3.94034 -0.42413,8.37468 2.5293,11 2.81787,2.50484 7.51476,2.30685 10.86328,0.57422 2.79602,-1.44675 1.43686,-5.51577 3.75977,-6.91407 3.34297,-2.01233 8.54571,1.39113 12.20312,-0.86719 2.67,-1.64862 4.93218,-4.72789 5.1875,-7.85546 0.32253,-3.9508 -1.85609,-7.63748 -4.58789,-10.50977 -2.47201,-2.59914 -6.03447,-4.40575 -9.58984,-4.88086 -0.50199,-0.0671 -1.02172,-0.0975 -1.54493,-0.0859 z m -163.63672,24.41993 c -3.70455,0.091 -7.43256,2.7386 -9.46094,5.83984 -2.04743,3.13036 -0.64971,8.20878 -2.91211,11.1875 -3.31254,4.36136 -10.22973,2.49977 -13.29101,7.04102 -2.40649,3.5699 -2.29452,7.59202 -0.32031,11.41796 1.79284,3.47446 3.95812,5.89095 7.75195,6.83594 3.04119,0.75752 7.75195,-0.21849 10.88477,-0.30859 4.30496,-0.12379 8.92112,1.65744 12.79296,-0.22852 4.30808,-2.09845 4.5532,-8.39428 8.34961,-11.31836 2.00032,-1.54068 3.70771,-1.87436 5.93555,-3.0625 2.53937,-1.35427 5.13315,-2.36096 6.49805,-5.71289 0.86869,-2.13331 2.21533,-5.12024 1.40234,-7.27539 -1.33176,-3.53033 -4.53483,-5.88413 -7.94726,-7.49414 -3.06243,-1.44488 -6.59838,-1.03638 -9.80079,-2.13672 -3.47444,-1.19382 -6.21011,-4.87545 -9.88281,-4.78515 z m 695.12111,7.77148 c -0.55905,0.012 -1.14474,0.083 -1.76172,0.21875 -5.10259,1.12279 -9.34004,5.74406 -11.74023,10.38477 -2.10934,4.07837 -5.87068,8.32975 -3.77735,12.56836 3.00759,6.08986 5.17794,3.60872 11.57422,5.63086 6.06217,1.91651 19.65268,7.72604 25.75782,5.95117 5.12282,-1.48926 6.74932,-9.33227 5.79882,-14.35547 -1.2009,-6.34687 -10.03642,-6.32902 -13.09765,-9.91211 -4.31598,-5.05175 -7.15248,-10.23255 -12.20313,-10.47852 -0.18038,-0.009 -0.36443,-0.0118 -0.55078,-0.008 z m -811.62892,51.5918 c -0.22812,-0.007 -0.45289,-0.003 -0.66993,0.0156 -1.78849,0.15059 -3.59704,1.16079 -5.21679,2.14063 -1.54623,0.93537 -2.92504,1.80821 -3.80664,3.27734 -2.43009,4.04959 1.07654,7.56297 1.4375,10.1875 0.24724,1.79769 -1.90401,2.53562 -2.9043,4.00977 -0.93694,1.3808 -1.20983,3.50111 -1.01367,5.18945 0.37886,3.26091 2.98237,6.70323 5.65234,8.61328 2.31946,1.65931 4.0474,3.04747 6.74024,4.03711 2.39171,0.87899 5.22259,2.03108 7.71093,1.48242 2.14523,-0.473 4.19837,-1.55461 5.5,-3.32421 1.77507,-2.41325 1.73356,-4.26108 2.68555,-7.10157 0.45717,-1.36406 0.5476,-4.28059 1.23828,-5.59179 0.90972,-1.72702 2.61156,-3.53921 2.56836,-5.4336 -0.0645,-2.83291 -0.15821,-6.57277 -2.00586,-9.0332 -2.09949,-2.79579 -6.93092,-1.0644 -9.98437,-2.76758 -1.70966,-0.95362 -1.98499,-2.85543 -3.59571,-4.21289 -0.9461,-0.79735 -2.73913,-1.43833 -4.33593,-1.48828 z m -20.38086,29.92773 c -0.69981,0.01 -1.39777,0.0944 -2.0625,0.24414 -1.78076,0.40126 -3.21674,1.43625 -4.4961,2.73829 -4.06642,4.13852 -8.2786,6.97985 -10.44922,9.81054 -1.85945,2.42489 -4.41651,5.4022 -5.11328,8.92578 -0.58221,2.94424 -1.15674,5.95688 1.46485,7.41797 1.92267,1.07151 5.80356,0.96591 7.78711,0.0117 2.17225,-1.04494 4.52679,-4.24115 6.56054,-5.53515 3.40098,-2.16392 6.2461,-1.89483 9.52735,-4.23633 1.95831,-1.39746 3.73717,-3.24084 4.77734,-5.41016 1.09796,-2.2898 2.31759,-4.78847 1.52539,-7.20117 -0.914,-2.78366 -3.46978,-4.93555 -6.14648,-6.12695 -0.83003,-0.36945 -1.74563,-0.56701 -2.67578,-0.62305 -0.23254,-0.014 -0.46595,-0.0188 -0.69922,-0.0156 z m 8.90039,25.33008 c -0.52481,-0.006 -1.05385,0.0642 -1.47852,0.16797 -1.42804,0.3491 -2.09598,1.98623 -3.39844,2.66797 -3.84181,2.01088 -7.61578,-1.22971 -11.0957,1.35742 -2.72081,2.02277 -4.4871,5.99194 -4.80664,9.36719 -0.31906,3.37009 2.89851,6.69545 1.99219,9.95703 -0.94374,3.39626 -5.69209,4.45695 -6.58399,7.86719 -0.91526,3.49959 0.60109,6.25754 1.85547,9.65039 0.64908,1.75563 2.08396,4.10328 1.62891,6.40234 -0.6417,3.24213 0.30767,6.76063 1.64453,9.78321 1.1444,2.58745 2.82302,5.07793 5.05664,6.81445 1.91303,1.48727 4.31139,2.95622 6.72656,2.75977 2.62359,-0.21341 4.84093,-2.84107 6.72461,-4.67969 2.37561,-2.31878 3.29871,-5.26218 5.42383,-7.8125 1.9522,-2.3428 4.93719,-3.75905 6.64844,-6.28321 1.23383,-1.81995 2.31672,-3.9352 2.43359,-6.13086 0.14799,-2.78033 -2.31233,-5.26354 -2.24023,-8.04687 0.037,-1.42741 1.44663,-3.5024 1.36133,-4.92773 -0.27946,-4.6698 -0.59552,-8.7228 -3.23243,-12.58985 -2.01724,-2.9583 -7.07317,-2.76893 -8.48242,-6.06055 -1.25642,-2.93466 3.40476,-6.57004 1.90235,-9.38671 -0.27434,-0.51431 -0.88099,-0.76041 -1.56055,-0.84375 -0.16989,-0.0208 -0.3446,-0.0311 -0.51953,-0.0332 z m 891.01175,23.16797 c -5.1703,0.12751 -10.8778,3.13298 -14.1973,4.02149 -6.8006,1.82027 -14.6483,-0.006 -18.8574,5.63671 -3.9097,5.24172 -0.072,11.16108 -1.7871,16.58399 -1.942,6.13909 -12.61852,9.51311 -12.88478,14.99805 -0.23535,4.84822 4.83448,10.25938 9.64458,10.91015 7.443,1.00698 10.0763,-6.80975 17.7382,-8.61523 9.4398,-2.22443 20.9132,-4.82995 30.17,-3.69141 6.1975,0.76225 14.9528,-0.0129 17.1543,-6.69726 1.5114,-4.58899 3.0814,-10.07114 1.0507,-14.45508 -2.8884,-6.23558 -10.2519,-4.95906 -15.3047,-5.5293 -4.5911,-0.51814 -3.7489,-10.00448 -7.8437,-12.14453 -1.4957,-0.78166 -3.1594,-1.06008 -4.8828,-1.01758 z m -935.55277,26.63281 c -2.59768,4.8e-4 -5.15245,2.09768 -6.875,4.06641 -1.48202,1.69381 -1.93721,3.7131 -2.20898,5.94727 -0.32713,2.68924 1.10886,5.36059 0.11523,7.88086 -0.48527,1.23086 -1.778557,1.85059 -2.498046,2.96093 -1.429929,2.2067 -2.829635,4.82278 -2.613282,7.44336 0.166646,2.01851 1.457834,3.92877 2.925782,5.32422 1.773736,1.68614 4.221166,2.05895 6.644526,2.40039 3.57254,0.50335 7.74837,-0.41416 10.66407,-2.53906 2.88286,-2.10096 4.55606,-4.43699 4.93164,-7.98437 0.24118,-2.27796 -0.67114,-4.65368 -1.84766,-6.61915 -1.10809,-1.85113 -3.66716,-2.44895 -4.40429,-4.47656 -1.1879,-3.26753 2.22891,-7.16931 0.86914,-10.36914 -0.85408,-2.00985 -3.01316,-3.7647 -5.1836,-4.00586 -0.17333,-0.0193 -0.34635,-0.0293 -0.51953,-0.0293 z m 914.85937,64.43165 c -4.7365,0.006 -10.4417,2.52478 -14.9883,5.59375 -6.2636,4.22804 -9.0787,9.52952 -13.83003,10.52734 -4.27253,0.89726 -13.43861,-1.85842 -17.82813,9.76367 -2.00239,5.30171 5.73545,11.12638 5.86328,15.9668 0.21545,8.15833 2.89799,17.01057 9.99024,16.75195 6.30624,-0.22996 8.06574,-5.17765 8.73434,-10.8164 0.5915,-4.98807 -0.8086,-11.23693 1.6094,-13.79883 2.0831,-2.20695 11.9926,-2.3658 18.0254,-6.35742 7.8138,-5.17008 13.8265,-16.19695 10.2617,-23.19141 -1.4749,-2.89397 -3.9616,-4.19052 -6.9043,-4.40625 -0.3065,-0.0225 -0.6178,-0.0336 -0.9336,-0.0332 z M 140.25,372.9004 c -0.22128,-0.006 -0.44409,-0.005 -0.66797,0.004 -0.2985,0.0123 -0.59938,0.0375 -0.90039,0.0762 -3.61212,0.46434 -7.32025,2.77711 -9.1289,5.71094 -2.51032,4.07202 1.00038,8.51998 0.83593,13.30078 -0.1071,3.11366 -0.91941,6.31251 -0.39062,9.38281 0.51972,3.01761 1.141,5.9907 3.35547,8.10547 1.92353,1.83693 5.02975,1.83988 7.29101,3.24023 3.05818,1.89388 5.62164,4.49446 8.31836,6.875 2.37302,2.09479 3.76221,6.18228 6.91016,6.51368 3.27749,0.34503 6.15292,-4.24856 8.28711,-6.75977 2.31431,-2.72315 4.4891,-4.75413 4.17969,-8.31445 -0.22337,-2.57037 -3.06037,-4.20429 -4.09375,-6.56836 -2.38348,-5.45274 -1.06,-12.7511 -4.92578,-17.27539 -2.23396,-2.6145 -7.8753,-2.77512 -10.54297,-4.94532 -3.47049,-2.82332 -2.27271,-7.8946 -6.58985,-9.06836 -0.62358,-0.16954 -1.27365,-0.25861 -1.9375,-0.27734 z m 865.9453,92.57227 c -0.3149,0.005 -0.6265,0.0163 -0.9336,0.0351 -1.6375,0.10067 -3.1499,0.40868 -4.4121,0.98243 -3.87629,1.76204 -0.3021,8.66185 -1.80856,12.64453 -2.2283,5.89125 -10.62273,9.49927 -10.375,15.79297 0.76851,6.76267 8.70728,8.9937 13.36526,12.79297 2.8552,2.45151 2.0042,8.92551 5.6738,9.75976 4.1408,0.94136 10.5259,0.008 13.8301,-1.52539 1.7893,-0.83055 -0.6178,-4.43852 0.7383,-5.87109 1.4937,-1.57787 4.3804,-0.54781 5.8281,-2.16797 2.2084,-2.47148 0.5947,-5.67213 1.2558,-8.91992 0.5013,-2.46292 2.8175,-4.63339 2.4727,-7.12305 -0.6265,-4.52497 -5.7928,-7.15548 -7.8418,-11.23828 -1.9132,-3.81214 -0.1698,-10.34768 -4.0391,-12.14258 -3.5083,-1.62748 -9.0295,-3.09167 -13.7539,-3.01953 z m -781.416,34.99609 c -0.816,-0.0214 -1.62596,0.0134 -2.39453,0.082 -2.63627,0.23542 -5.16757,1.58628 -7.26758,3.19727 -2.13193,1.63547 -2.95203,4.60244 -5.04687,6.28516 -2.9553,2.37389 -6.86967,3.21635 -10.19336,5.03906 -1.92748,1.05703 -4.37946,1.61488 -5.64258,3.41406 -1.1702,1.66691 -1.07125,3.95953 -1.19922,5.99219 -0.12663,2.01127 0.62222,4.02288 0.43359,6.02929 -0.25062,2.66581 -1.84079,5.0971 -2.06054,7.76563 -0.23464,2.84927 -0.57656,6.03942 0.81445,8.53711 0.8511,1.52821 2.49794,2.68593 4.17774,3.17383 2.89186,0.83996 6.20861,0.36036 9.0039,-0.75977 1.8975,-0.76037 3.45865,-2.2821 4.77539,-3.8457 1.584,-1.88095 1.85471,-4.69897 3.58203,-6.44922 1.88831,-1.9134 5.09284,-2.1132 6.99805,-4.00977 1.61247,-1.60515 1.74579,-4.36551 3.41992,-5.90625 1.9575,-1.80154 4.63309,-2.77229 7.21485,-3.41406 1.98508,-0.49344 4.38241,0.78747 6.1289,-0.27734 1.88992,-1.15226 3.05891,-3.5602 3.30664,-5.75977 0.26274,-2.33273 -0.52481,-4.95724 -2.05859,-6.73437 -1.30822,-1.51578 -4.15003,-1.03492 -5.42578,-2.57813 -1.65289,-1.99941 -0.10821,-5.71348 -1.95899,-7.53125 -1.65152,-1.62192 -4.1594,-2.18571 -6.60742,-2.25 z m -56.68164,37.54102 c -0.43502,-0.007 -0.86324,-3.4e-4 -1.28125,0.0176 -3.94893,0.16903 -7.83672,1.15457 -10.45313,4.11718 -2.30084,2.60528 -2.98029,6.93498 -3.22265,10.40235 -0.2277,3.25765 -0.0704,6.70696 1.17773,9.72461 1.19622,2.89209 4.73433,4.44845 5.78516,7.39648 0.66528,1.86639 -0.6188,4.10685 0.125,5.94336 0.95947,2.36902 2.96076,4.254 5.38086,5.07617 3.63041,1.23335 8.08192,0.10246 11.3418,-1.91601 2.0957,-1.29762 3.7613,-3.00811 4.18945,-5.43555 0.36874,-2.09058 -1.31512,-4.04533 -1.75977,-6.12109 -0.34446,-1.60804 -1.30846,-3.35532 -0.69922,-4.88282 0.63176,-1.58397 3.30674,-1.62497 4.01172,-3.17773 0.95784,-2.10972 0.86301,-4.95994 -0.33789,-6.94141 -0.90291,-1.4898 -3.52163,-1.20592 -4.50976,-2.64062 -1.64684,-2.39111 0.47801,-6.40658 -1.4336,-8.5918 -1.92831,-2.20432 -5.26928,-2.9217 -8.31445,-2.9707 z m 889.00974,27.3418 c -0.1494,1.6e-4 -0.2989,0.006 -0.4492,0.0156 -3.6071,0.23446 -7.4367,3.14745 -10.5449,4.36133 -2.5454,0.99411 -5.638,-1.87987 -8.791,-0.53125 -3.186,1.36275 -8.0139,4.3662 -6.8711,9.67383 0.7649,3.55269 7.6507,4.18869 9.0195,8.00976 1.094,3.05388 2.7069,6.93291 7.1153,7.56836 3.2911,0.4744 5.7241,-3.70975 8.9941,-4.3125 4.1347,-0.76214 10.8593,-0.0616 12.3047,-4.5957 1.4247,-4.46904 -2.4163,-8.82073 -4.3828,-9.28125 -1.6244,-0.38039 2.5498,-6.48938 -3.3457,-10.07227 -0.9784,-0.59461 -2.0027,-0.8371 -3.0489,-0.83593 z m -442.04879,2.47461 c -0.44421,0.0238 -0.88556,0.0939 -1.32422,0.2246 -2.77053,0.82535 -3.85535,4.55071 -6.47852,5.76563 -2.78714,1.29066 -6.14104,0.55274 -9.12304,1.28906 -4.23202,1.04498 -8.93803,1.64868 -12.3125,4.40821 -3.33336,2.72591 -2.7019,9.41043 -6.68164,11.05468 -3.22121,1.33086 -7.62205,1.95307 -9.85157,5.67383 -3.22804,5.38714 -3.21014,13.44917 -8.51758,16.80664 -4.75534,3.00821 -11.35873,-0.66723 -16.875,0.44336 -3.09273,0.62266 -6.77044,1.03357 -8.82031,3.43164 -2.58463,3.02366 -2.43141,7.68394 -2.54297,11.66016 -0.14031,5.0008 4.41525,10.2514 2.37305,14.81836 -1.04736,2.3422 -4.72213,2.28999 -6.47656,4.16211 -1.91677,2.04535 -1.89113,5.60007 -4.07813,7.35351 -1.5712,1.25972 -3.8291,2.15679 -5.79297,1.71094 -2.72172,-0.6179 -3.76643,-4.27653 -6.2207,-5.60547 -1.97786,-1.07097 -4.31704,-2.17501 -6.52148,-1.72851 -3.43857,0.69647 -6.47892,3.45945 -8.32422,6.44336 -1.91801,3.1015 -1.88506,8.02617 -0.92774,11.54492 1.32856,4.88327 3.46776,7.73376 6.70313,12.62695 2.54166,3.84402 8.0421,6.15293 11.60937,9.07031 2.95656,2.41793 6.94339,5.60901 8.49805,9.09766 2.42069,5.43199 -4.15207,13.03173 0.47656,16.76563 3.16004,2.54919 8.42716,4.35757 13.04492,3.79297 4.42628,-0.54119 5.84594,-5.96286 7.60938,-10.0586 1.11017,-2.57845 -1.69437,-8.55827 -1.11328,-11.23242 0.32525,-1.49676 4.13687,-1.77654 6.08984,-1.08789 4.34664,1.5327 0.42503,9.09657 3.64063,12.39844 2.88421,2.96158 8.1714,5.93895 12.23828,5.19726 5.45243,-0.99439 8.81169,-7.08862 11.7168,-11.80859 4.47749,-7.27462 2.20799,-19.49736 7.80859,-25.94727 1.85733,-2.13899 16.21095,-3.52276 23.00977,-9.59179 4.04804,-3.61351 3.98697,-11.28632 8.9082,-13.57227 3.51867,-1.63445 7.51218,2.85884 11.37305,2.47656 3.87942,-0.38412 6.85393,-4.16922 10.71875,-4.67969 6.64137,-0.8772 13.20938,3.65084 19.875,2.98243 4.83606,-0.48494 8.87576,-4.40295 13.70117,-4.98438 4.01983,-0.48436 8.15472,0.30679 12.07422,1.32227 4.77243,1.23646 8.82613,4.64518 13.63476,5.73242 5.42015,1.2255 11.10183,0.51176 16.65235,0.7793 5.24603,0.25287 10.81504,2.60859 15.73828,0.77929 2.67931,-0.99554 3.92876,-4.19058 6.20898,-5.91406 3.44915,-2.60701 7.68193,-1.82157 11.95508,-2.99023 3.66002,-1.00098 6.71954,-5.40224 7.98438,-8.78516 2.23225,-5.97036 5.37112,-12.90156 3.12109,-18.86524 -1.72793,-4.57985 -8.48152,-5.3424 -11.36914,-9.29492 -2.19032,-2.99807 -1.81351,-7.42868 -4.0957,-10.35742 -2.03532,-2.61194 -4.79528,-5.27428 -8.06446,-5.80078 -2.7389,-0.4411 -4.73973,1.90862 -7.50976,2.06055 -3.73933,0.2051 -6.06775,-2.77904 -9.77735,-2.26563 -5.98971,0.82897 -12.02361,10.26062 -17.80664,8.49414 -4.33175,-1.32318 -5.47829,-4.69036 -6.61523,-10.04687 -0.42324,-1.99403 1.03894,-6.421 0.58984,-8.50586 -0.62039,-2.88011 -3.67241,-4.8188 -5.75976,-6.70899 -5.14258,-4.65684 -13.17936,-5.1292 -20.11328,-5.35937 -5.50557,-0.18276 -10.71509,3.49743 -16.21485,3.18554 -3.95677,-0.22439 -7.64291,-2.14765 -11.33203,-3.5957 -3.30617,-1.29773 -6.10808,-4.14052 -9.63672,-4.54492 -2.55253,-0.29253 -4.96726,1.5422 -7.53516,1.625 -2.74482,0.0885 -5.50972,-1.45449 -8.20117,-1.79102 -0.44857,-0.0561 -0.89563,-0.0785 -1.33984,-0.0547 z m -211.95704,44.86718 c -1.71096,0.0314 -3.42795,0.35617 -5.0039,0.86524 -2.9808,0.96287 -3.89398,4.89304 -6.75,6.17969 -2.80315,1.26283 -6.48722,0.0521 -9.36329,1.13867 -2.08821,0.78893 -2.60287,3.38136 -4.5332,4.65234 -1.7265,1.13676 -4.39409,0.88714 -5.28906,2.67188 -1.23991,2.47263 -1.35774,6.01934 0.21484,8.29492 2.00681,2.90393 5.77254,3.50327 9.26758,3.99805 3.08902,0.43731 6.22585,-1.48026 9.30664,-0.98829 2.22357,0.35508 3.95406,2.32814 6.16211,2.76954 2.5917,0.51809 5.52279,0.87776 7.92578,-0.22266 2.75204,-1.26025 4.12814,-4.42862 6.12305,-6.70508 1.81482,-2.07096 5.02176,-3.58444 5.31641,-6.32226 0.23322,-2.16708 -2.37238,-4.12273 -3.00977,-6.20704 -0.46915,-1.53418 0.0706,-2.88832 -0.56055,-4.36328 -0.95291,-2.22703 -2.60555,-3.91754 -4.83398,-4.86718 -1.55646,-0.66329 -3.26169,-0.92589 -4.97266,-0.89454 z m 290.28126,45.93165 c -2.29109,0.0998 -4.62826,0.73545 -6.20117,2.24609 -1.52266,1.46238 -0.11545,4.83004 -1.82813,6.06445 -3.84203,2.76912 -9.76372,-2.06165 -14.20312,-0.41211 -3.6972,1.37376 -6.87365,4.50476 -8.73438,7.98243 -1.31812,2.46349 -0.98951,5.50546 -1.27148,8.28515 -0.35932,3.54224 -2.10586,7.4737 -0.53321,10.66797 1.27025,2.58005 4.24011,4.5425 7.0918,4.91406 4.78481,0.62344 8.8595,-5.73595 13.61524,-4.91992 3.88848,0.66721 5.4322,6.19373 9.15429,7.50195 3.64816,1.28222 7.99628,1.28215 11.59961,-0.12109 3.62276,-1.41081 5.4493,-5.62788 8.67578,-7.79687 4.3038,-2.89321 10.74153,-2.75318 13.99805,-6.78907 2.33043,-2.88816 3.40636,-7.18918 2.63086,-10.81836 -0.9539,-4.46402 -4.25239,-8.89775 -8.39258,-10.82031 -3.13459,-1.45558 -6.97664,1.13978 -10.35937,0.43164 -4.7192,-0.98791 -8.19915,-5.86375 -12.9961,-6.34961 -0.72325,-0.0733 -1.4824,-0.0997 -2.24609,-0.0664 z m 365.85547,32.80664 c -0.5592,-0.009 -1.0628,0.032 -1.5273,0.11328 -2.7875,0.48793 -4.1642,2.38038 -7.6817,2.9375 -4.69,0.74282 -11.2752,1.2792 -12.7656,6.52539 -1.4904,5.24619 1.5523,7.1695 2.666,10.06836 1.1137,2.89886 -1.8562,5.99908 -0.5332,8.37305 1.323,2.37397 4.1776,4.75393 5.4414,4.625 1.2638,-0.12893 5.0879,1.27761 7.377,-0.48633 2.2891,-1.76394 9.0071,-8.65034 14.25,-8.55664 5.2429,0.0937 12.6061,2.44285 13.8105,-1.39649 1.2044,-3.83934 2.272,-7.74727 -0.9433,-12.21289 -3.2153,-4.46562 -12.7342,-8.78935 -18.2325,-9.79492 -0.6873,-0.1257 -1.3021,-0.1859 -1.8613,-0.19531 z"
       style="opacity:1;stroke-width:1.88976382;stroke-linecap:round;fill:#ffffff;fill-opacity:1;stroke:#000000;stroke-opacity:1;stroke-dasharray:none"
       id="path31"
       inkscape:label="MAPA" /><path
       d="m 377.34181,183.53125 c -2.21161,-0.1353 -4.63305,1.80003 -5.08594,3.65821 -0.52278,2.14497 0.51727,4.74614 -0.70313,6.58594 -1.20063,1.80999 -4.52898,3.08496 -7.16797,3.87109 -3.10751,0.9257 -5.51722,1.30269 -6.14453,2.96484 -1.2996,3.44348 -1.39959,4.25337 -2.26758,6.28711 -0.69384,1.62569 1.26771,2.71683 2.24024,4.5625 0.69882,1.32621 0.19156,3.54411 1.37695,4.89649 2.06724,2.35848 8.70951,3.86378 11.34961,5.55664 4.09572,2.62623 3.01195,6.88508 7.86133,7.27929 1.48404,0.12064 0.91528,-2.08695 1.83008,-3.26171 1.44213,-1.85195 0.67894,-4.038 2.51367,-5.50196 1.55675,-1.24215 7.74722,-0.54531 9.22461,-1.88086 2.23608,-2.02148 7.22202,-2.81659 9.87695,-1.99218 4.64337,1.44186 6.16496,4.57778 8.27735,8.40429 1.57751,2.8576 2.66577,7.17202 4.6914,6.48828 3.86737,-1.3054 4.81154,-5.82369 6.14453,-9.68164 1.5505,-4.48745 9.84495,-6.34012 9.34961,-12.18945 -0.2195,-2.59207 -4.49758,-1.87771 -7.26562,-1.26953 -4.23203,0.92983 -7.73296,2.03681 -12.0332,2.56836 -4.85229,0.59977 -12.54237,-2.61625 -15.14649,-5.74414 -0.93616,-1.12446 -1.68435,-3.97959 -1.79492,-5.94532 -0.14752,-2.6228 0.38485,-4.44366 -1.27344,-6 -3.64952,-3.42513 -4.85653,-3.81541 -8.79492,-5.95312 -3.32851,-1.80666 -6.54822,-3.67193 -7.05859,-3.70313 z"
       style="fill:#61bbff;stroke-width:1.88976382;stroke-linecap:round;stroke:#000000;stroke-opacity:1;stroke-dasharray:none"
       id="path2"
       inkscape:label="RYBI JEZERO" /></g></svg>
